<svg viewBox="0 0 1000 700" xmlns="http://www.w3.org/2000/svg">
  <!-- Background -->
  <rect width="1000" height="700" fill="#f8f8f8"/>

  <!-- Title -->
  <text x="500" y="40" font-family="Arial" font-size="28" text-anchor="middle" font-weight="bold" fill="#333">Words Humans Yield - Network Diagram</text>

  <!-- Input Vocabulary Section -->
  <g>
    <text x="120" y="90" font-family="Arial" font-size="22" text-anchor="middle" font-weight="bold" fill="#333">Input Vocabulary</text>
    <rect x="20" y="110" width="200" height="460" fill="#FFD700" fill-opacity="0.2" stroke="#555" stroke-width="2" rx="5"/>

    <!-- Input Words (12 of 20 are shown) -->
    <rect x="45" y="125" width="150" height="30" fill="white" stroke="#666" stroke-width="1.5" rx="3"/>
    <text x="120" y="145" font-family="Arial" font-size="16" text-anchor="middle">"he"</text>

    <rect x="45" y="165" width="150" height="30" fill="white" stroke="#666" stroke-width="1.5" rx="3"/>
    <text x="120" y="185" font-family="Arial" font-size="16" text-anchor="middle">"the"</text>

    <rect x="45" y="205" width="150" height="30" fill="white" stroke="#666" stroke-width="1.5" rx="3"/>
    <text x="120" y="225" font-family="Arial" font-size="16" text-anchor="middle">"a"</text>

    <rect x="45" y="245" width="150" height="30" fill="white" stroke="#666" stroke-width="1.5" rx="3"/>
    <text x="120" y="265" font-family="Arial" font-size="16" text-anchor="middle">"on"</text>

    <rect x="45" y="285" width="150" height="30" fill="white" stroke="#666" stroke-width="1.5" rx="3"/>
    <text x="120" y="305" font-family="Arial" font-size="16" text-anchor="middle">"in"</text>

    <rect x="45" y="325" width="150" height="30" fill="#90EE90" stroke="#666" stroke-width="1.5" rx="3"/>
    <text x="120" y="345" font-family="Arial" font-size="16" text-anchor="middle" font-weight="bold">"cat" (ACTIVE)</text>

    <rect x="45" y="365" width="150" height="30" fill="white" stroke="#666" stroke-width="1.5" rx="3"/>
    <text x="120" y="385" font-family="Arial" font-size="16" text-anchor="middle">"dog"</text>

    <rect x="45" y="405" width="150" height="30" fill="white" stroke="#666" stroke-width="1.5" rx="3"/>
    <text x="120" y="425" font-family="Arial" font-size="16" text-anchor="middle">"child"</text>

    <rect x="45" y="445" width="150" height="30" fill="#90EE90" stroke="#666" stroke-width="1.5" rx="3"/>
    <text x="120" y="465" font-family="Arial" font-size="16" text-anchor="middle" font-weight="bold">"sits" (ACTIVE)</text>

    <rect x="45" y="485" width="150" height="30" fill="#90EE90" stroke="#666" stroke-width="1.5" rx="3"/>
    <text x="120" y="505" font-family="Arial" font-size="16" text-anchor="middle" font-weight="bold">"on" (ACTIVE)</text>

    <rect x="45" y="525" width="150" height="30" fill="white" stroke="#666" stroke-width="1.5" rx="3"/>
    <text x="120" y="545" font-family="Arial" font-size="16" text-anchor="middle">"...[8 more]..."</text>
  </g>

  <!-- Hidden Layer 1 -->
  <g>
    <text x="350" y="90" font-family="Arial" font-size="22" text-anchor="middle" font-weight="bold" fill="#333">Hidden Layer 1</text>

    <circle cx="350" cy="160" r="45" fill="#87CEFA" stroke="#555" stroke-width="2.5"/>
    <text x="350" y="155" font-family="Arial" font-size="16" text-anchor="middle" font-weight="bold">HL1-1</text>
    <text x="350" y="175" font-family="Arial" font-size="14" text-anchor="middle">INACTIVE (0)</text>

    <circle cx="350" cy="280" r="45" fill="#87CEFA" stroke="#555" stroke-width="2.5"/>
    <text x="350" y="275" font-family="Arial" font-size="16" text-anchor="middle" font-weight="bold">HL1-2</text>
    <text x="350" y="295" font-family="Arial" font-size="14" text-anchor="middle">ACTIVE (1)</text>

    <circle cx="350" cy="400" r="45" fill="#87CEFA" stroke="#555" stroke-width="2.5"/>
    <text x="350" y="395" font-family="Arial" font-size="16" text-anchor="middle" font-weight="bold">HL1-3</text>
    <text x="350" y="415" font-family="Arial" font-size="14" text-anchor="middle">ACTIVE (1)</text>

    <circle cx="350" cy="520" r="45" fill="#87CEFA" stroke="#555" stroke-width="2.5"/>
    <text x="350" y="515" font-family="Arial" font-size="16" text-anchor="middle" font-weight="bold">HL1-4</text>
    <text x="350" y="535" font-family="Arial" font-size="14" text-anchor="middle">INACTIVE (0)</text>
  </g>

  <!-- Hidden Layer 2 -->
  <g>
    <text x="600" y="90" font-family="Arial" font-size="22" text-anchor="middle" font-weight="bold" fill="#333">Hidden Layer 2</text>

    <circle cx="600" cy="160" r="45" fill="#90EE90" stroke="#555" stroke-width="2.5"/>
    <text x="600" y="155" font-family="Arial" font-size="16" text-anchor="middle" font-weight="bold">HL2-1</text>
    <text x="600" y="175" font-family="Arial" font-size="14" text-anchor="middle">ACTIVE (1)</text>

    <circle cx="600" cy="280" r="45" fill="#90EE90" stroke="#555" stroke-width="2.5"/>
    <text x="600" y="275" font-family="Arial" font-size="16" text-anchor="middle" font-weight="bold">HL2-2</text>
    <text x="600" y="295" font-family="Arial" font-size="14" text-anchor="middle">INACTIVE (0)</text>

    <circle cx="600" cy="400" r="45" fill="#90EE90" stroke="#555" stroke-width="2.5"/>
    <text x="600" y="395" font-family="Arial" font-size="16" text-anchor="middle" font-weight="bold">HL2-3</text>
    <text x="600" y="415" font-family="Arial" font-size="14" text-anchor="middle">ACTIVE (1)</text>

    <circle cx="600" cy="520" r="45" fill="#90EE90" stroke="#555" stroke-width="2.5"/>
    <text x="600" y="515" font-family="Arial" font-size="16" text-anchor="middle" font-weight="bold">HL2-4</text>
    <text x="600" y="535" font-family="Arial" font-size="14" text-anchor="middle">INACTIVE (0)</text>
  </g>

  <!-- Output Vocabulary -->
  <g>
    <text x="850" y="90" font-family="Arial" font-size="22" text-anchor="middle" font-weight="bold" fill="#333">Output Vocabulary</text>
    <rect x="750" y="110" width="200" height="460" fill="#FFA07A" fill-opacity="0.2" stroke="#555" stroke-width="2" rx="5"/>

    <!-- Output Words (all 10) with scores -->
    <rect x="775" y="125" width="150" height="30" fill="yellow" stroke="#666" stroke-width="1.5" rx="3"/>
    <text x="850" y="145" font-family="Arial" font-size="16" text-anchor="middle" font-weight="bold">"mat" (Score: +4)</text>

    <rect x="775" y="165" width="150" height="30" fill="white" stroke="#666" stroke-width="1.5" rx="3"/>
    <text x="850" y="185" font-family="Arial" font-size="16" text-anchor="middle">"table" (Score: +1)</text>

    <rect x="775" y="205" width="150" height="30" fill="white" stroke="#666" stroke-width="1.5" rx="3"/>
    <text x="850" y="225" font-family="Arial" font-size="16" text-anchor="middle">"chair" (Score: -2)</text>

    <rect x="775" y="245" width="150" height="30" fill="white" stroke="#666" stroke-width="1.5" rx="3"/>
    <text x="850" y="265" font-family="Arial" font-size="16" text-anchor="middle">"floor" (Score: +2)</text>

    <rect x="775" y="285" width="150" height="30" fill="white" stroke="#666" stroke-width="1.5" rx="3"/>
    <text x="850" y="305" font-family="Arial" font-size="16" text-anchor="middle">"door" (Score: -1)</text>

    <rect x="775" y="325" width="150" height="30" fill="white" stroke="#666" stroke-width="1.5" rx="3"/>
    <text x="850" y="345" font-family="Arial" font-size="16" text-anchor="middle">"garden" (Score: 0)</text>

    <rect x="775" y="365" width="150" height="30" fill="white" stroke="#666" stroke-width="1.5" rx="3"/>
    <text x="850" y="385" font-family="Arial" font-size="16" text-anchor="middle">"book" (Score: -2)</text>

    <rect x="775" y="405" width="150" height="30" fill="white" stroke="#666" stroke-width="1.5" rx="3"/>
    <text x="850" y="425" font-family="Arial" font-size="16" text-anchor="middle">"ball" (Score: 0)</text>

    <rect x="775" y="445" width="150" height="30" fill="white" stroke="#666" stroke-width="1.5" rx="3"/>
    <text x="850" y="465" font-family="Arial" font-size="16" text-anchor="middle">"cabinet" (Score: +1)</text>

    <rect x="775" y="485" width="150" height="30" fill="white" stroke="#666" stroke-width="1.5" rx="3"/>
    <text x="850" y="505" font-family="Arial" font-size="16" text-anchor="middle">"lamp" (Score: -3)</text>

    <!-- Winning prediction marker -->
    <text x="850" y="540" font-family="Arial" font-size="18" text-anchor="middle" font-weight="bold" fill="#d32f2f">
      Prediction: "mat"
    </text>
  </g>

  <!-- Connections Input to HL1 (selective) -->
  <g stroke="#888" stroke-width="1" stroke-dasharray="5,3">
    <!-- "cat" to HL1 -->
    <line x1="195" y1="340" x2="305" y2="160"/>
    <line x1="195" y1="340" x2="305" y2="280"/>
    <line x1="195" y1="340" x2="305" y2="400"/>
    <line x1="195" y1="340" x2="305" y2="520"/>

    <!-- "sits" to HL1 -->
    <line x1="195" y1="460" x2="305" y2="160"/>
    <line x1="195" y1="460" x2="305" y2="280"/>
    <line x1="195" y1="460" x2="305" y2="400"/>
    <line x1="195" y1="460" x2="305" y2="520"/>

    <!-- "on" to HL1 -->
    <line x1="195" y1="500" x2="305" y2="160"/>
    <line x1="195" y1="500" x2="305" y2="280"/>
    <line x1="195" y1="500" x2="305" y2="400"/>
    <line x1="195" y1="500" x2="305" y2="520"/>
  </g>

  <!-- Connections HL1 to HL2 (selective) -->
  <g stroke="#666" stroke-width="1.5">
    <!-- HL1-2 (active) to HL2 -->
    <line x1="395" y1="280" x2="555" y2="160"/>
    <line x1="395" y1="280" x2="555" y2="280"/>
    <line x1="395" y1="280" x2="555" y2="400"/>
    <line x1="395" y1="280" x2="555" y2="520"/>

    <!-- HL1-3 (active) to HL2 -->
    <line x1="395" y1="400" x2="555" y2="160"/>
    <line x1="395" y1="400" x2="555" y2="280"/>
    <line x1="395" y1="400" x2="555" y2="400"/>
    <line x1="395" y1="400" x2="555" y2="520"/>
  </g>

  <!-- Connections HL2 to Output (selective) -->
  <g stroke="#444" stroke-width="1.8">
    <!-- HL2-1 (active) to outputs -->
    <line x1="645" y1="160" x2="775" y2="140"/>
    <line x1="645" y1="160" x2="775" y2="180"/>
    <line x1="645" y1="160" x2="775" y2="220"/>
    <line x1="645" y1="160" x2="775" y2="260"/>

    <!-- HL2-3 (active) to outputs -->
    <line x1="645" y1="400" x2="775" y2="140"/>
    <line x1="645" y1="400" x2="775" y2="180"/>
    <line x1="645" y1="400" x2="775" y2="220"/>
    <line x1="645" y1="400" x2="775" y2="260"/>
  </g>

  <!-- Example weights -->
  <!-- Input to HL1 -->
  <rect x="240" y="310" width="30" height="20" fill="white" stroke="#000" rx="2"/>
  <text x="255" y="324" font-family="Arial" font-size="12" text-anchor="middle" font-weight="bold">+3</text>

  <rect x="230" y="400" width="30" height="20" fill="white" stroke="#000" rx="2"/>
  <text x="245" y="414" font-family="Arial" font-size="12" text-anchor="middle" font-weight="bold">+2</text>

  <rect x="260" y="460" width="30" height="20" fill="white" stroke="#000" rx="2"/>
  <text x="275" y="474" font-family="Arial" font-size="12" text-anchor="middle" font-weight="bold">-1</text>

  <!-- HL1 to HL2 -->
  <rect x="470" y="230" width="30" height="20" fill="white" stroke="#000" rx="2"/>
  <text x="485" y="244" font-family="Arial" font-size="12" text-anchor="middle" font-weight="bold">+4</text>

  <rect x="450" y="350" width="30" height="20" fill="white" stroke="#000" rx="2"/>
  <text x="465" y="364" font-family="Arial" font-size="12" text-anchor="middle" font-weight="bold">+3</text>

  <!-- HL2 to Output -->
  <rect x="700" y="140" width="30" height="20" fill="white" stroke="#000" rx="2"/>
  <text x="715" y="154" font-family="Arial" font-size="12" text-anchor="middle" font-weight="bold">+3</text>

  <rect x="680" y="320" width="30" height="20" fill="white" stroke="#000" rx="2"/>
  <text x="695" y="334" font-family="Arial" font-size="12" text-anchor="middle" font-weight="bold">-2</text>

  <!-- Role positions at bottom -->
  <g>
    <rect x="50" y="610" width="140" height="50" fill="#F5DEB3" stroke="#555" rx="5"/>
    <text x="120" y="630" font-family="Arial" font-size="16" text-anchor="middle" font-weight="bold">Input processors</text>
    <text x="120" y="650" font-family="Arial" font-size="12" text-anchor="middle">Activate words</text>

    <rect x="240" y="610" width="140" height="50" fill="#87CEFA" stroke="#555" rx="5"/>
    <text x="310" y="630" font-family="Arial" font-size="16" text-anchor="middle" font-weight="bold">HL1 Neurons</text>
    <text x="310" y="650" font-family="Arial" font-size="12" text-anchor="middle">First processing</text>

    <rect x="430" y="610" width="140" height="50" fill="#90EE90" stroke="#555" rx="5"/>
    <text x="500" y="630" font-family="Arial" font-size="16" text-anchor="middle" font-weight="bold">HL2 Neurons</text>
    <text x="500" y="650" font-family="Arial" font-size="12" text-anchor="middle">Second processing</text>

    <rect x="620" y="610" width="140" height="50" fill="#E6E6FA" stroke="#555" rx="5"/>
    <text x="690" y="630" font-family="Arial" font-size="16" text-anchor="middle" font-weight="bold">Output processors</text>
    <text x="690" y="650" font-family="Arial" font-size="12" text-anchor="middle">Calculate scores</text>

    <rect x="810" y="610" width="140" height="50" fill="#FFDAB9" stroke="#555" rx="5"/>
    <text x="880" y="630" font-family="Arial" font-size="16" text-anchor="middle" font-weight="bold">Backprop trainers</text>
    <text x="880" y="650" font-family="Arial" font-size="12" text-anchor="middle">Adjust weights</text>
  </g>

  <!-- Note about example sentence -->
  <g>
    <rect x="150" y="20" width="700" height="30" fill="#e3f2fd" stroke="#2196f3" rx="5"/>
    <text x="500" y="40" font-family="Arial" font-size="16" text-anchor="middle">
      Example sentence: "The cat sits on the ___" (Correct answer: "mat")
    </text>
  </g>
</svg>
